<mxfile host="app.diagrams.net" modified="2023-06-30T07:07:20.257Z" agent="Mozilla/5.0 (Windows NT 10.0; Win64; x64) AppleWebKit/537.36 (KHTML, like Gecko) Chrome/114.0.0.0 Safari/537.36" etag="OeRMXtv_E-CkYk9SVzlO" version="21.5.1" type="github">
  <diagram name="第 1 页" id="AxzvuJnG2eA_lrtSdkLd">
    <mxGraphModel dx="1434" dy="755" grid="0" gridSize="10" guides="1" tooltips="1" connect="1" arrows="1" fold="1" page="1" pageScale="1" pageWidth="827" pageHeight="1169" background="none" math="0" shadow="1">
      <root>
        <mxCell id="0" />
        <mxCell id="1" parent="0" />
        <mxCell id="iPJSiOSNo4McJhQbUnHn-3" value="" style="ellipse;whiteSpace=wrap;html=1;fillColor=#CCCCCC;strokeColor=default;fillStyle=auto;fontColor=#333333;gradientColor=none;" parent="1" vertex="1">
          <mxGeometry x="210" y="120" width="340" height="390" as="geometry" />
        </mxCell>
        <mxCell id="iPJSiOSNo4McJhQbUnHn-4" value="" style="ellipse;whiteSpace=wrap;html=1;fillColor=#E6E6E6;strokeColor=#0d0d0d;fillStyle=auto;gradientColor=none;" parent="1" vertex="1">
          <mxGeometry x="250" y="200" width="260" height="280" as="geometry" />
        </mxCell>
        <mxCell id="iPJSiOSNo4McJhQbUnHn-5" value="&lt;font face=&quot;Verdana&quot; style=&quot;font-size: 18px;&quot;&gt;朴素贝叶斯&lt;/font&gt;" style="ellipse;whiteSpace=wrap;html=1;fillColor=#f5f5f5;strokeColor=#666666;fontColor=#333333;" parent="1" vertex="1">
          <mxGeometry x="290" y="270" width="185" height="179" as="geometry" />
        </mxCell>
        <mxCell id="iPJSiOSNo4McJhQbUnHn-6" value="&lt;font style=&quot;font-size: 16px;&quot;&gt;贝叶斯分类器&lt;/font&gt;" style="text;html=1;align=center;verticalAlign=middle;resizable=0;points=[];autosize=1;strokeColor=none;fillColor=none;" parent="1" vertex="1">
          <mxGeometry x="315" y="220" width="120" height="30" as="geometry" />
        </mxCell>
        <mxCell id="iPJSiOSNo4McJhQbUnHn-7" value="&lt;font style=&quot;font-size: 18px;&quot;&gt;贝叶斯原理&lt;/font&gt;" style="text;html=1;align=center;verticalAlign=middle;resizable=0;points=[];autosize=1;strokeColor=none;fillColor=none;" parent="1" vertex="1">
          <mxGeometry x="323" y="144" width="110" height="40" as="geometry" />
        </mxCell>
      </root>
    </mxGraphModel>
  </diagram>
</mxfile>
